# xmcd
#
# Track frame offsets: 
#        150
#        7700
#        21177
#        32860
#        46275
#        63677
#        76490
#        88417
#        102752
#        115550
#        121415
#        135355
#        146915
#        159237
#        173335
#        186005
#        199002
#        210542
#
# Disc length: 3060 seconds
#
# Revision: 3
# Processed by: cddbd v1.5.2PL0 Copyright (c) Steve Scherf et al.
# Submitted via: ExactAudioCopyFreeDBPlugin 1.0
#
DISCID=e60bf212
DTITLE=Jet Stream - Bonjour,Paris ! ボンジュール!パリ
DYEAR=1900
DGENRE=Easy Listening
TTITLE0=オープニング：ミスター・ロンリー
TTITLE1=パリの空の下
TTITLE2=恋はみずいろ
TTITLE3=そよ風のメヌエット
TTITLE4=枯葉
TTITLE5=アイ・ラブ・パリ
TTITLE6=パリのお嬢さん
TTITLE7=ムーラン・ルージュの歌
TTITLE8=イン・シャラー
TTITLE9=ナレーション『便り』
TTITLE10=詩人の魂
TTITLE11=オリーブの首飾り
TTITLE12=エマニエル夫人
TTITLE13=シャルメーヌ
TTITLE14=ラスト・タンゴ・イン・パリ
TTITLE15=風のささやき
TTITLE16=ばら色の人生
TTITLE17=エンディング：夢幻飛行
EXTD=
EXTT0=
EXTT1=
EXTT2=
EXTT3=
EXTT4=
EXTT5=
EXTT6=
EXTT7=
EXTT8=
EXTT9=
EXTT10=
EXTT11=
EXTT12=
EXTT13=
EXTT14=
EXTT15=
EXTT16=
EXTT17=
PLAYORDER=
